<mxfile host="drawio-plugin" modified="2022-10-25T08:18:12.172Z" agent="5.0 (Windows NT 10.0; Win64; x64) AppleWebKit/537.36 (KHTML, like Gecko) Chrome/98.0.4758.102 Safari/537.36" etag="EpgQjYfsuTiWDv8Kqcie" version="15.5.4" type="embed"><diagram id="23iRSUPoRavnBvh4doch" name="Page-1"><mxGraphModel dx="352" dy="293" grid="1" gridSize="10" guides="1" tooltips="1" connect="1" arrows="1" fold="1" page="1" pageScale="1" pageWidth="827" pageHeight="1169" math="0" shadow="0"><root><mxCell id="0"/><mxCell id="1" parent="0"/><mxCell id="2" value="" style="ellipse;html=1;shape=startState;fillColor=#000000;strokeColor=#ff0000;" vertex="1" parent="1"><mxGeometry x="285" y="210" width="30" height="30" as="geometry"/></mxCell><mxCell id="3" value="" style="edgeStyle=orthogonalEdgeStyle;html=1;verticalAlign=bottom;endArrow=open;endSize=8;strokeColor=#ff0000;rounded=0;entryX=0.5;entryY=0;entryDx=0;entryDy=0;" edge="1" source="2" parent="1" target="7"><mxGeometry relative="1" as="geometry"><mxPoint x="145" y="260" as="targetPoint"/></mxGeometry></mxCell><mxCell id="12" value="e&amp;lt;Ramp&amp;gt;" style="edgeStyle=orthogonalEdgeStyle;rounded=0;orthogonalLoop=1;jettySize=auto;html=1;exitX=0.5;exitY=1;exitDx=0;exitDy=0;curved=1;" edge="1" parent="1" source="7" target="23"><mxGeometry x="0.1927" y="-39" relative="1" as="geometry"><mxPoint x="172.5" y="350" as="targetPoint"/><mxPoint y="-4" as="offset"/></mxGeometry></mxCell><mxCell id="7" value="Idle" style="rounded=1;whiteSpace=wrap;html=1;arcSize=40;fontColor=#000000;fillColor=#ffffc0;strokeColor=#ff0000;" vertex="1" parent="1"><mxGeometry x="240" y="270" width="120" height="40" as="geometry"/></mxCell><mxCell id="23" value="RampSubSM" style="shape=umlFrame;whiteSpace=wrap;html=1;glass=0;container=1;dropTarget=1;recursiveResize=0;width=110;height=20;" vertex="1" parent="1"><mxGeometry x="18" y="398" width="522" height="452" as="geometry"/></mxCell><mxCell id="38" style="edgeStyle=orthogonalEdgeStyle;curved=1;rounded=0;orthogonalLoop=1;jettySize=auto;html=1;exitX=0.5;exitY=1;exitDx=0;exitDy=0;entryX=0.5;entryY=0;entryDx=0;entryDy=0;" edge="1" parent="23" source="34" target="36"><mxGeometry relative="1" as="geometry"/></mxCell><mxCell id="34" value="" style="ellipse;html=1;shape=startState;fillColor=#000000;strokeColor=#ff0000;glass=0;" vertex="1" parent="23"><mxGeometry x="55" y="47" width="30" height="30" as="geometry"/></mxCell><mxCell id="41" value="/ load_first_ramp" style="edgeStyle=orthogonalEdgeStyle;curved=1;rounded=0;orthogonalLoop=1;jettySize=auto;html=1;exitX=0.5;exitY=1;exitDx=0;exitDy=0;entryX=0.5;entryY=0;entryDx=0;entryDy=0;" edge="1" parent="23" source="36" target="39"><mxGeometry x="-0.3333" y="51" relative="1" as="geometry"><mxPoint as="offset"/></mxGeometry></mxCell><mxCell id="36" value="Entry" style="rounded=1;whiteSpace=wrap;html=1;arcSize=40;fontColor=#000000;fillColor=#ffffc0;strokeColor=#ff0000;glass=0;" vertex="1" parent="23"><mxGeometry x="70" y="137" width="120" height="40" as="geometry"/></mxCell><mxCell id="39" value="StartHold" style="rounded=1;whiteSpace=wrap;html=1;arcSize=40;fontColor=#000000;fillColor=#ffffc0;strokeColor=#ff0000;glass=0;" vertex="1" parent="23"><mxGeometry x="70" y="237" width="120" height="40" as="geometry"/></mxCell><mxCell id="49" value="[ramping_done]" style="edgeStyle=orthogonalEdgeStyle;curved=1;rounded=0;orthogonalLoop=1;jettySize=auto;html=1;" edge="1" parent="23" source="44" target="48"><mxGeometry x="0.0196" y="-20" relative="1" as="geometry"><mxPoint as="offset"/></mxGeometry></mxCell><mxCell id="44" value="Ramping" style="rounded=1;whiteSpace=wrap;html=1;arcSize=40;fontColor=#000000;fillColor=#ffffc0;strokeColor=#ff0000;glass=0;" vertex="1" parent="23"><mxGeometry x="70" y="317" width="120" height="40" as="geometry"/></mxCell><mxCell id="45" value="[after_start_hold] / ramping_start" style="edgeStyle=orthogonalEdgeStyle;curved=1;rounded=0;orthogonalLoop=1;jettySize=auto;html=1;" edge="1" parent="23" source="39" target="44"><mxGeometry relative="1" as="geometry"/></mxCell><mxCell id="46" value="e&amp;lt;Tick&amp;gt; / update_ramping" style="edgeStyle=orthogonalEdgeStyle;curved=1;rounded=0;orthogonalLoop=1;jettySize=auto;html=1;exitX=0.5;exitY=1;exitDx=0;exitDy=0;entryX=0.25;entryY=1;entryDx=0;entryDy=0;" edge="1" parent="23" source="44" target="44"><mxGeometry x="0.1143" y="20" relative="1" as="geometry"><Array as="points"><mxPoint x="130" y="377"/><mxPoint x="100" y="377"/></Array><mxPoint as="offset"/></mxGeometry></mxCell><mxCell id="54" value="[has_more_spec] / load_next_spec" style="edgeStyle=orthogonalEdgeStyle;curved=1;rounded=0;orthogonalLoop=1;jettySize=auto;html=1;exitX=0.25;exitY=0;exitDx=0;exitDy=0;entryX=1;entryY=0.5;entryDx=0;entryDy=0;" edge="1" parent="23" source="48" target="39"><mxGeometry x="-0.0625" y="20" relative="1" as="geometry"><mxPoint as="offset"/></mxGeometry></mxCell><mxCell id="56" value="[!has_more_spec &amp;amp;&amp;amp; !has_more_loop]" style="edgeStyle=orthogonalEdgeStyle;curved=1;rounded=0;orthogonalLoop=1;jettySize=auto;html=1;exitX=0.5;exitY=1;exitDx=0;exitDy=0;entryX=0.5;entryY=0;entryDx=0;entryDy=0;" edge="1" parent="23" source="48" target="55"><mxGeometry relative="1" as="geometry"/></mxCell><mxCell id="58" value="[!has_more_spec &amp;amp;&amp;amp; has_more_loop] / loop_inc, load_first_ramp" style="edgeStyle=orthogonalEdgeStyle;curved=1;rounded=0;orthogonalLoop=1;jettySize=auto;html=1;exitX=0.5;exitY=0;exitDx=0;exitDy=0;entryX=1;entryY=0.25;entryDx=0;entryDy=0;" edge="1" parent="23" source="48" target="39"><mxGeometry x="-0.3966" y="-10" relative="1" as="geometry"><mxPoint as="offset"/></mxGeometry></mxCell><mxCell id="48" value="EndHold" style="rounded=1;whiteSpace=wrap;html=1;arcSize=40;fontColor=#000000;fillColor=#ffffc0;strokeColor=#ff0000;glass=0;" vertex="1" parent="23"><mxGeometry x="292" y="317" width="120" height="40" as="geometry"/></mxCell><mxCell id="55" value="" style="ellipse;html=1;shape=endState;fillColor=#000000;strokeColor=#ff0000;glass=0;" vertex="1" parent="23"><mxGeometry x="337" y="407" width="30" height="30" as="geometry"/></mxCell><mxCell id="74" value="e&amp;lt;Stop&amp;gt;" style="curved=1;endArrow=classic;html=1;rounded=0;exitX=0.637;exitY=0.004;exitDx=0;exitDy=0;exitPerimeter=0;entryX=0.75;entryY=1;entryDx=0;entryDy=0;" edge="1" parent="1" source="23" target="7"><mxGeometry x="-0.1533" y="-31" width="50" height="50" relative="1" as="geometry"><mxPoint x="400" y="350" as="sourcePoint"/><mxPoint x="450" y="300" as="targetPoint"/><Array as="points"><mxPoint x="351" y="360"/></Array><mxPoint y="2" as="offset"/></mxGeometry></mxCell><mxCell id="75" value="e&amp;lt;Set&amp;gt;" style="edgeStyle=orthogonalEdgeStyle;curved=1;rounded=0;orthogonalLoop=1;jettySize=auto;html=1;exitX=1;exitY=0.75;exitDx=0;exitDy=0;entryX=1;entryY=0.25;entryDx=0;entryDy=0;" edge="1" parent="1" source="7" target="7"><mxGeometry x="0.3333" y="-20" relative="1" as="geometry"><Array as="points"><mxPoint x="380" y="300"/><mxPoint x="380" y="280"/></Array><mxPoint x="20" y="20" as="offset"/></mxGeometry></mxCell></root></mxGraphModel></diagram></mxfile>